<svg xmlns="http://www.w3.org/2000/svg" viewBox="0 0 1200 800" width="1200" height="800" role="img">
<defs>
<linearGradient id="g39763" gradientTransform="rotate(111)">
<stop offset="0%" stop-color="#0f766e"/>
<stop offset="60%" stop-color="#2dd4bf"/>
<stop offset="100%" stop-color="#99f6e4"/>
</linearGradient>
<radialGradient id="r39763" cx="30%" cy="20%">
<stop offset="0%" stop-color="#ffffff" stop-opacity=".45"/>
<stop offset="100%" stop-color="#ffffff" stop-opacity="0"/>
</radialGradient>
<filter id="b39763" x="-30%" y="-30%" width="160%" height="160%">
<feGaussianBlur stdDeviation="42"/>
</filter>
</defs>
<rect width="1200" height="800" fill="url(#g39763)"/>
<ellipse cx="637" cy="717" rx="187" ry="134" fill="#fff" opacity="0.141" filter="url(#b39763)"/><ellipse cx="208" cy="637" rx="251" ry="181" fill="#fff" opacity="0.162" filter="url(#b39763)"/><ellipse cx="454" cy="366" rx="268" ry="193" fill="#fff" opacity="0.129" filter="url(#b39763)"/><ellipse cx="1174" cy="386" rx="172" ry="124" fill="#fff" opacity="0.088" filter="url(#b39763)"/><ellipse cx="582" cy="391" rx="227" ry="163" fill="#fff" opacity="0.115" filter="url(#b39763)"/>
<rect x="977" y="106" width="16" height="7" rx="2" fill="#fff" opacity="0.23" transform="rotate(0 977 106)"/><circle cx="884" cy="185" r="5.5" fill="#fff" opacity="0.11"/><circle cx="922" cy="681" r="1.5" fill="#fff" opacity="0.17"/><rect x="40" y="74" width="11" height="5" rx="2" fill="#fff" opacity="0.22" transform="rotate(58 40 74)"/><circle cx="447" cy="154" r="1.7" fill="#fff" opacity="0.31"/><rect x="407" y="92" width="10" height="4" rx="2" fill="#fff" opacity="0.27" transform="rotate(40 407 92)"/><rect x="309" y="222" width="20" height="8" rx="2" fill="#fff" opacity="0.21" transform="rotate(50 309 222)"/><rect x="92" y="90" width="20" height="9" rx="2" fill="#fff" opacity="0.13" transform="rotate(38 92 90)"/><circle cx="415" cy="301" r="5.2" fill="#fff" opacity="0.37"/><circle cx="888" cy="415" r="2.8" fill="#fff" opacity="0.26"/><circle cx="118" cy="792" r="2.1" fill="#fff" opacity="0.30"/><circle cx="1050" cy="205" r="2.0" fill="#fff" opacity="0.26"/><circle cx="836" cy="460" r="3.9" fill="#fff" opacity="0.34"/><circle cx="568" cy="282" r="3.8" fill="#fff" opacity="0.37"/><circle cx="155" cy="719" r="1.9" fill="#fff" opacity="0.23"/><rect x="64" y="471" width="6" height="3" rx="2" fill="#fff" opacity="0.18" transform="rotate(37 64 471)"/><rect x="255" y="553" width="17" height="7" rx="2" fill="#fff" opacity="0.20" transform="rotate(88 255 553)"/><circle cx="922" cy="482" r="3.9" fill="#fff" opacity="0.34"/><circle cx="311" cy="687" r="4.7" fill="#fff" opacity="0.11"/><rect x="751" y="16" width="10" height="4" rx="2" fill="#fff" opacity="0.27" transform="rotate(6 751 16)"/><rect x="797" y="327" width="21" height="9" rx="2" fill="#fff" opacity="0.34" transform="rotate(25 797 327)"/><circle cx="1115" cy="201" r="2.0" fill="#fff" opacity="0.34"/><rect x="265" y="42" width="12" height="5" rx="2" fill="#fff" opacity="0.33" transform="rotate(12 265 42)"/><rect x="930" y="269" width="7" height="3" rx="2" fill="#fff" opacity="0.36" transform="rotate(26 930 269)"/><circle cx="141" cy="751" r="3.7" fill="#fff" opacity="0.38"/><rect x="807" y="590" width="20" height="8" rx="2" fill="#fff" opacity="0.37" transform="rotate(65 807 590)"/><circle cx="58" cy="777" r="5.3" fill="#fff" opacity="0.15"/><rect x="942" y="329" width="12" height="5" rx="2" fill="#fff" opacity="0.28" transform="rotate(21 942 329)"/><rect x="998" y="138" width="15" height="6" rx="2" fill="#fff" opacity="0.31" transform="rotate(70 998 138)"/><circle cx="189" cy="418" r="4.8" fill="#fff" opacity="0.12"/><circle cx="1139" cy="488" r="4.4" fill="#fff" opacity="0.13"/><rect x="144" y="576" width="19" height="8" rx="2" fill="#fff" opacity="0.11" transform="rotate(81 144 576)"/><circle cx="311" cy="725" r="4.6" fill="#fff" opacity="0.28"/><rect x="442" y="161" width="19" height="8" rx="2" fill="#fff" opacity="0.34" transform="rotate(61 442 161)"/><rect x="957" y="55" width="17" height="7" rx="2" fill="#fff" opacity="0.37" transform="rotate(11 957 55)"/><rect x="614" y="628" width="14" height="6" rx="2" fill="#fff" opacity="0.29" transform="rotate(66 614 628)"/><circle cx="47" cy="60" r="2.7" fill="#fff" opacity="0.21"/><rect x="590" y="121" width="20" height="9" rx="2" fill="#fff" opacity="0.16" transform="rotate(61 590 121)"/><circle cx="1015" cy="12" r="4.0" fill="#fff" opacity="0.26"/><rect x="977" y="766" width="20" height="8" rx="2" fill="#fff" opacity="0.30" transform="rotate(35 977 766)"/><circle cx="195" cy="340" r="5.7" fill="#fff" opacity="0.13"/><circle cx="153" cy="713" r="2.6" fill="#fff" opacity="0.15"/><rect x="183" y="570" width="8" height="3" rx="2" fill="#fff" opacity="0.24" transform="rotate(30 183 570)"/><rect x="191" y="593" width="11" height="5" rx="2" fill="#fff" opacity="0.31" transform="rotate(7 191 593)"/><rect x="162" y="51" width="9" height="4" rx="2" fill="#fff" opacity="0.24" transform="rotate(7 162 51)"/><rect x="437" y="37" width="14" height="6" rx="2" fill="#fff" opacity="0.23" transform="rotate(66 437 37)"/>
<rect width="1200" height="800" fill="url(#r39763)"/>
</svg>