<svg xmlns="http://www.w3.org/2000/svg" viewBox="0 0 1200 800" width="1200" height="800" role="img">
<defs>
<linearGradient id="g75498" gradientTransform="rotate(127)">
<stop offset="0%" stop-color="#1d4ed8"/>
<stop offset="60%" stop-color="#38bdf8"/>
<stop offset="100%" stop-color="#c7d2fe"/>
</linearGradient>
<radialGradient id="r75498" cx="30%" cy="20%">
<stop offset="0%" stop-color="#ffffff" stop-opacity=".45"/>
<stop offset="100%" stop-color="#ffffff" stop-opacity="0"/>
</radialGradient>
<filter id="b75498" x="-30%" y="-30%" width="160%" height="160%">
<feGaussianBlur stdDeviation="42"/>
</filter>
</defs>
<rect width="1200" height="800" fill="url(#g75498)"/>
<ellipse cx="1190" cy="559" rx="132" ry="95" fill="#fff" opacity="0.159" filter="url(#b75498)"/><ellipse cx="472" cy="760" rx="162" ry="117" fill="#fff" opacity="0.123" filter="url(#b75498)"/><ellipse cx="332" cy="723" rx="290" ry="209" fill="#fff" opacity="0.079" filter="url(#b75498)"/><ellipse cx="1055" cy="42" rx="214" ry="154" fill="#fff" opacity="0.071" filter="url(#b75498)"/><ellipse cx="930" cy="6" rx="230" ry="166" fill="#fff" opacity="0.105" filter="url(#b75498)"/>
<path d="M 120 800 A 240 240 0 0 1 600 800" fill="none" stroke="#fff" stroke-opacity="0.260" stroke-width="2.5"/><path d="M 120 800 A 396 396 0 0 1 912 800" fill="none" stroke="#fff" stroke-opacity="0.220" stroke-width="2.5"/><path d="M 120 800 A 552 552 0 0 1 1224 800" fill="none" stroke="#fff" stroke-opacity="0.180" stroke-width="2.5"/><path d="M 120 800 A 708 708 0 0 1 1536 800" fill="none" stroke="#fff" stroke-opacity="0.140" stroke-width="2.5"/><path d="M 120 800 A 864 864 0 0 1 1848 800" fill="none" stroke="#fff" stroke-opacity="0.100" stroke-width="2.5"/>
<rect width="1200" height="800" fill="url(#r75498)"/>
</svg>