<svg xmlns="http://www.w3.org/2000/svg" viewBox="0 0 260 64" width="260" height="64">
<defs><linearGradient id="gw" x1="0" y1="0" x2="1" y2="1">
<stop offset="0%" stop-color="#191970"/><stop offset="100%" stop-color="#ff7d11"/>
</linearGradient></defs>
<rect width="64" height="64" rx="16" fill="url(#gw)"/>
<path d="M20 21h24a3 3 0 0 1 3 3v5a5 5 0 0 0 0 10v5a3 3 0 0 1-3 3H20a3 3 0 0 1-3-3v-5a5 5 0 0 0 0-10v-5a3 3 0 0 1 3-3Z" fill="#fff" fill-opacity=".95"/>
<path d="M32 21v3m0 5v3m0 5v3m0 5v3" stroke="#0038bd" stroke-width="2.4" stroke-linecap="round" stroke-dasharray="3 4"/>
<text x="78" y="41" font-family="Plus Jakarta Sans, Inter, system-ui, sans-serif" font-size="26" font-weight="800" fill="#ffffff" letter-spacing="-.6">Events<tspan fill="#99ade0">pady</tspan></text>
</svg>